<svg xmlns="http://www.w3.org/2000/svg" viewBox="-528 -162 1203 324" font-family="'Segoe UI', 'Microsoft YaHei', sans-serif">
<rect x="-528" y="-162" width="1203" height="324" fill="#fafaf8"/>
<path d="M 54 0 C 79.6 9.600000000000001, 92.4 -57.6, 118 -48" fill="none" stroke="#b4b2a9" stroke-width="1.2"/>
<path d="M 271 -48 C 296.6 -40.6, 309.4 -92.4, 335 -85" fill="none" stroke="#b4b2a9" stroke-width="1.2"/>
<path d="M 271 -48 C 296.6 -43.2, 309.4 -28.8, 335 -24" fill="none" stroke="#b4b2a9" stroke-width="1.2"/>
<path d="M -54 0 C -79.6 0, -92.4 0, -118 0" fill="none" stroke="#b4b2a9" stroke-width="1.2"/>
<path d="M -271 0 C -296.6 9.600000000000001, -309.4 -57.6, -335 -48" fill="none" stroke="#b4b2a9" stroke-width="1.2"/>
<path d="M -271 0 C -296.6 0, -309.4 0, -335 0" fill="none" stroke="#b4b2a9" stroke-width="1.2"/>
<path d="M -271 0 C -296.6 9.600000000000001, -309.4 38.4, -335 48" fill="none" stroke="#b4b2a9" stroke-width="1.2"/>
<path d="M 54 0 C 79.6 12.200000000000001, 92.4 48.8, 118 61" fill="none" stroke="#b4b2a9" stroke-width="1.2"/>
<path d="M 199 61 C 224.6 65.8, 237.4 32.2, 263 37" fill="none" stroke="#b4b2a9" stroke-width="1.2"/>
<path d="M 199 61 C 224.6 65.8, 237.4 80.2, 263 85" fill="none" stroke="#b4b2a9" stroke-width="1.2"/>
<rect x="-54" y="-17" width="108" height="34" rx="6" fill="#d9d7ef" stroke="#534ab7" stroke-width="1.5"/>
<text x="-46" y="0" dominant-baseline="central" font-size="13" fill="#26215c">知识画布路线图</text>
<rect x="118" y="-65" width="153" height="34" rx="6" fill="#e4e2f4" stroke="#c9c7e8" stroke-width="0.8"/>
<text x="126" y="-48" dominant-baseline="central" font-size="13" fill="#26215c">P0 只读渲染（已交付）</text>
<rect x="335" y="-102" width="210" height="34" rx="6" fill="#eceaf8" stroke="#c9c7e8" stroke-width="0.8"/>
<text x="343" y="-85" dominant-baseline="central" font-size="13" fill="#26215c">三栏布局 · 实体节点 · 状态徽章</text>
<rect x="335" y="-54" width="280" height="60" rx="6" fill="#eceaf8" stroke="#c9c7e8" stroke-width="0.8"/>
<text x="343" y="-24" dominant-baseline="central" font-size="13" fill="#26215c">@doc:docs/07-entity-ref-protocol.md</text>
<rect x="-271" y="-17" width="153" height="34" rx="6" fill="#e4e2f4" stroke="#c9c7e8" stroke-width="0.8"/>
<text x="-263" y="0" dominant-baseline="central" font-size="13" fill="#26215c">P1 编辑能力（下一步）</text>
<rect x="-468" y="-65" width="133" height="34" rx="6" fill="#eceaf8" stroke="#c9c7e8" stroke-width="0.8"/>
<text x="-460" y="-48" dominant-baseline="central" font-size="13" fill="#26215c">实体选择器 Picker</text>
<rect x="-456" y="-17" width="121" height="34" rx="6" fill="#eceaf8" stroke="#c9c7e8" stroke-width="0.8"/>
<text x="-448" y="0" dominant-baseline="central" font-size="13" fill="#26215c">保存回写 .mm.md</text>
<rect x="-419" y="31" width="84" height="34" rx="6" fill="#eceaf8" stroke="#c9c7e8" stroke-width="0.8"/>
<text x="-411" y="48" dominant-baseline="central" font-size="13" fill="#26215c">册子目录页</text>
<rect x="118" y="44" width="81" height="34" rx="6" fill="#e4e2f4" stroke="#c9c7e8" stroke-width="0.8"/>
<text x="126" y="61" dominant-baseline="central" font-size="13" fill="#26215c">P2 全局层</text>
<rect x="263" y="20" width="96" height="34" rx="6" fill="#eceaf8" stroke="#c9c7e8" stroke-width="0.8"/>
<text x="271" y="37" dominant-baseline="central" font-size="13" fill="#26215c">跨库组织视图</text>
<rect x="263" y="68" width="217" height="34" rx="6" fill="#eceaf8" stroke="#c9c7e8" stroke-width="0.8"/>
<text x="271" y="85" dominant-baseline="central" font-size="13" fill="#26215c">@idea:forge-inbox:2</text>
</svg>